<?xml version="1.0" encoding="UTF-8" standalone="no"?>
<!DOCTYPE svg PUBLIC "-//W3C//DTD SVG 1.1//EN" "http://www.w3.org/Graphics/SVG/1.1/DTD/svg11.dtd">
<svg width="100%" height="100%" viewBox="0 0 360 72" version="1.1" xmlns="http://www.w3.org/2000/svg" xmlns:xlink="http://www.w3.org/1999/xlink" xml:space="preserve" xmlns:serif="http://www.serif.com/" style="fill-rule:evenodd;clip-rule:evenodd;stroke-linejoin:round;stroke-miterlimit:1.5;">
    <g transform="matrix(1,0,0,1,-4876,-2433)">
        <g id="_360x72_spm_minimalistic_text" serif:id="360x72_spm_minimalistic_text" transform="matrix(2.608696,0,0,1.142857,-8206.608696,-387.571429)">
            <rect x="5015" y="2468" width="138" height="63" style="fill:none;"/>
            <g transform="matrix(0.060827,0,0,0.138843,4785.445362,2273.687188)">
                <path d="M3911.213,1785.612C3906.882,1782.021 3902.721,1778.23 3898.746,1774.254C3866.164,1741.672 3846,1696.672 3846,1647C3846,1547.655 3926.655,1467 4026,1467C4125.345,1467 4206,1547.655 4206,1647C4206,1696.735 4185.785,1741.786 4153.131,1774.378C4149.134,1778.367 4144.951,1782.169 4140.596,1785.771L4026,1642.399L3911.213,1785.612Z" style="fill:rgb(255,97,39);"/>
            </g>
            <g transform="matrix(0.060827,0,0,0.138843,4785.445362,2273.687188)">
                <path d="M4145.362,1766.593C4125.468,1743.225 4026,1626.385 4026,1626.385L3906.522,1766.478C3800.66,1660.616 3876.785,1478 4026,1478C4175.292,1478 4251.381,1660.778 4145.362,1766.593Z" style="fill:rgb(0,90,141);"/>
            </g>
            <g transform="matrix(0.038904,0,0,0.100854,4873.90122,2330.670689)">
                <g transform="matrix(1.242188,0,0,1.09375,-980.046875,-127.40625)">
                    <path d="M3881,1652L3882.08,1654.92L3885,1656L3882.08,1657.08L3881,1660L3879.92,1657.08L3877,1656L3879.92,1654.92L3881,1652Z" style="fill:none;stroke:white;stroke-width:1.59px;"/>
                </g>
                <g transform="matrix(1.242188,0,0,1.09375,-989.984375,-48.65625)">
                    <path d="M3881,1652L3882.08,1654.92L3885,1656L3882.08,1657.08L3881,1660L3879.92,1657.08L3877,1656L3879.92,1654.92L3881,1652Z" style="fill:none;stroke:white;stroke-width:1.59px;"/>
                </g>
                <g transform="matrix(1.242188,0,0,1.09375,-859.554687,-276.15625)">
                    <path d="M3881,1652L3882.08,1654.92L3885,1656L3882.08,1657.08L3881,1660L3879.92,1657.08L3877,1656L3879.92,1654.92L3881,1652Z" style="fill:none;stroke:white;stroke-width:1.59px;"/>
                </g>
                <g transform="matrix(1.242188,0,0,1.09375,-696.828125,-61.78125)">
                    <path d="M3881,1652L3882.08,1654.92L3885,1656L3882.08,1657.08L3881,1660L3879.92,1657.08L3877,1656L3879.92,1654.92L3881,1652Z" style="fill:none;stroke:white;stroke-width:1.59px;"/>
                </g>
                <g transform="matrix(1.242188,0,0,1.09375,-616.084582,-121.9375)">
                    <path d="M3881,1652L3882.08,1654.92L3885,1656L3882.08,1657.08L3881,1660L3879.92,1657.08L3877,1656L3879.92,1654.92L3881,1652Z" style="fill:none;stroke:white;stroke-width:1.59px;"/>
                </g>
                <g transform="matrix(1.242188,0,0,1.09375,-834.710938,-214.90625)">
                    <path d="M3881,1652L3882.08,1654.92L3885,1656L3882.08,1657.08L3881,1660L3879.92,1657.08L3877,1656L3879.92,1654.92L3881,1652Z" style="fill:none;stroke:white;stroke-width:1.59px;"/>
                </g>
                <g transform="matrix(1.242188,0,0,1.09375,-710.492187,-165.6875)">
                    <path d="M3881,1652L3882.08,1654.92L3885,1656L3882.08,1657.08L3881,1660L3879.92,1657.08L3877,1656L3879.92,1654.92L3881,1652Z" style="fill:none;stroke:white;stroke-width:1.59px;"/>
                </g>
                <g transform="matrix(1.242188,0,0,1.09375,-908,-184.28125)">
                    <path d="M3881,1652L3882.08,1654.92L3885,1656L3882.08,1657.08L3881,1660L3879.92,1657.08L3877,1656L3879.92,1654.92L3881,1652Z" style="fill:none;stroke:white;stroke-width:1.59px;"/>
                </g>
                <g transform="matrix(1.242188,0,0,1.09375,-732.851562,-249.90625)">
                    <path d="M3881,1652L3882.08,1654.92L3885,1656L3882.08,1657.08L3881,1660L3879.92,1657.08L3877,1656L3879.92,1654.92L3881,1652Z" style="fill:none;stroke:white;stroke-width:1.59px;"/>
                </g>
                <g transform="matrix(1.242188,0,0,1.09375,-788.75,-165.6875)">
                    <path d="M3881,1652L3882.08,1654.92L3885,1656L3882.08,1657.08L3881,1660L3879.92,1657.08L3877,1656L3879.92,1654.92L3881,1652Z" style="fill:none;stroke:white;stroke-width:1.59px;"/>
                </g>
                <g transform="matrix(1.242188,0,0,1.09375,-960.171875,-209.4375)">
                    <path d="M3881,1652L3882.08,1654.92L3885,1656L3882.08,1657.08L3881,1660L3879.92,1657.08L3877,1656L3879.92,1654.92L3881,1652Z" style="fill:none;stroke:white;stroke-width:1.59px;"/>
                </g>
                <g transform="matrix(1.242188,0,0,1.09375,-890.609375,-98.96875)">
                    <path d="M3881,1652L3882.08,1654.92L3885,1656L3882.08,1657.08L3881,1660L3879.92,1657.08L3877,1656L3879.92,1654.92L3881,1652Z" style="fill:none;stroke:white;stroke-width:1.59px;"/>
                </g>
                <g transform="matrix(1.242188,0,0,1.09375,-659.5625,-222.5625)">
                    <path d="M3881,1652L3882.08,1654.92L3885,1656L3882.08,1657.08L3881,1660L3879.92,1657.08L3877,1656L3879.92,1654.92L3881,1652Z" style="fill:none;stroke:white;stroke-width:1.59px;"/>
                </g>
            </g>
            <g transform="matrix(0.051542,0,0,0.117651,4822.823656,2308.06732)">
                <path d="M3901.949,1761.905C3795.931,1656.09 3876.707,1478 4025.999,1478L4026,1478C4175.292,1478 4256.068,1656.09 4150.05,1761.905" style="fill:none;stroke:white;stroke-width:7.44px;"/>
            </g>
            <g transform="matrix(0.038904,0,0,0.100854,4873.90122,2330.670689)">
                <g transform="matrix(1.075766,-0.546875,0.621094,0.947215,-1556.567621,2316.213648)">
                    <path d="M4025.999,1631.999L4030.051,1642.948L4041,1647L4030.051,1651.052L4025.999,1662.001L4021.947,1651.052L4010.998,1647L4021.947,1642.948L4025.999,1631.999Z" style="fill:rgb(255,97,39);"/>
                </g>
                <g transform="matrix(1.199861,0.283083,-0.321502,1.056481,-423.29024,-1333.68675)">
                    <path d="M4025.999,1631.999L4030.051,1642.948L4041,1647L4030.051,1651.052L4025.999,1662.001L4021.947,1651.052L4010.998,1647L4021.947,1642.948L4025.999,1631.999Z" style="fill:rgb(255,97,39);"/>
                </g>
                <g transform="matrix(1.199861,-0.283083,0.321502,1.056481,-1192.887425,945.699609)">
                    <path d="M4025.999,1631.999L4030.051,1642.948L4041,1647L4030.051,1651.052L4025.999,1662.001L4021.947,1651.052L4010.998,1647L4021.947,1642.948L4025.999,1631.999Z" style="fill:rgb(255,97,39);"/>
                </g>
                <g transform="matrix(1.242188,0,0,1.09375,-980.045519,-301.36431)">
                    <path d="M4025.999,1631.999L4030.051,1642.948L4041,1647L4030.051,1651.052L4025.999,1662.001L4021.947,1651.052L4010.998,1647L4021.947,1642.948L4025.999,1631.999Z" style="fill:rgb(255,97,39);"/>
                </g>
                <g transform="matrix(1.075766,0.546875,-0.621094,0.947215,941.223462,-2087.222658)">
                    <path d="M4025.999,1631.999L4030.051,1642.948L4041,1647L4030.051,1651.052L4025.999,1662.001L4021.947,1651.052L4010.998,1647L4021.947,1642.948L4025.999,1631.999Z" style="fill:rgb(255,97,39);"/>
                </g>
                <g transform="matrix(1.242188,0,0,1.09375,-811.108019,25.71875)">
                    <path d="M4025.999,1631.999L4030.051,1642.948L4041,1647L4030.051,1651.052L4025.999,1662.001L4021.947,1651.052L4010.998,1647L4021.947,1642.948L4025.999,1631.999Z" style="fill:rgb(255,97,39);"/>
                </g>
                <g transform="matrix(1.242188,0,0,1.09375,-1148.981663,25.71875)">
                    <path d="M4025.999,1631.999L4030.051,1642.948L4041,1647L4030.051,1651.052L4025.999,1662.001L4021.947,1651.052L4010.998,1647L4021.947,1642.948L4025.999,1631.999Z" style="fill:rgb(255,97,39);"/>
                </g>
            </g>
            <g transform="matrix(0.034171,-0.078,0.034171,0.078,4796.306459,2768.225438)">
                <path d="M5071.381,1583.77C5075.301,1583.85 5079.341,1584.05 5083.501,1584.37C5087.661,1584.69 5091.821,1585.29 5095.981,1586.17L5095.261,1593.85C5091.821,1593.69 5088.021,1593.55 5083.861,1593.43C5079.701,1593.31 5075.701,1593.25 5071.861,1593.25C5068.901,1593.25 5066.361,1593.35 5064.241,1593.55C5062.121,1593.75 5060.381,1594.23 5059.021,1594.99C5057.661,1595.75 5056.681,1596.99 5056.081,1598.71C5055.481,1600.43 5055.181,1602.81 5055.181,1605.85C5055.181,1610.41 5056.001,1613.59 5057.641,1615.39C5059.281,1617.19 5061.941,1618.53 5065.621,1619.41L5082.421,1623.61C5088.821,1625.13 5093.201,1627.79 5095.561,1631.59C5097.921,1635.39 5099.101,1640.49 5099.101,1646.89C5099.101,1651.69 5098.561,1655.57 5097.481,1658.53C5096.401,1661.49 5094.741,1663.75 5092.501,1665.31C5090.261,1666.87 5087.381,1667.95 5083.861,1668.55C5080.341,1669.15 5076.181,1669.45 5071.381,1669.45C5068.661,1669.45 5065.121,1669.33 5060.761,1669.09C5056.401,1668.85 5051.381,1668.21 5045.701,1667.17L5046.421,1659.37C5051.141,1659.53 5054.941,1659.67 5057.821,1659.79C5060.701,1659.91 5063.181,1659.97 5065.261,1659.97L5071.741,1659.97C5075.981,1659.97 5079.321,1659.65 5081.761,1659.01C5084.201,1658.37 5085.921,1657.09 5086.921,1655.17C5087.921,1653.25 5088.421,1650.41 5088.421,1646.65C5088.421,1643.45 5088.061,1640.97 5087.341,1639.21C5086.621,1637.45 5085.481,1636.11 5083.921,1635.19C5082.361,1634.27 5080.381,1633.53 5077.981,1632.97L5060.821,1628.65C5054.821,1627.13 5050.601,1624.49 5048.161,1620.73C5045.721,1616.97 5044.501,1611.93 5044.501,1605.61C5044.501,1600.81 5045.041,1596.95 5046.121,1594.03C5047.201,1591.11 5048.841,1588.91 5051.041,1587.43C5053.241,1585.95 5056.021,1584.97 5059.381,1584.49C5062.741,1584.01 5066.741,1583.77 5071.381,1583.77Z" style="fill:white;fill-rule:nonzero;"/>
            </g>
            <g transform="matrix(0.048326,0,0,0.110309,4784.746521,2322.336368)">
                <path d="M5084.699,1498.062C5091.339,1498.062 5096.599,1498.822 5100.479,1500.342C5104.359,1501.862 5107.139,1504.482 5108.819,1508.202C5110.499,1511.922 5111.339,1517.182 5111.339,1523.982C5111.339,1530.782 5110.519,1536.062 5108.879,1539.822C5107.239,1543.582 5104.559,1546.202 5100.839,1547.682C5097.119,1549.162 5092.139,1549.902 5085.899,1549.902C5082.539,1549.902 5079.319,1549.822 5076.239,1549.662C5073.159,1549.502 5070.339,1549.282 5067.779,1549.002C5065.219,1548.722 5063.039,1548.422 5061.239,1548.102C5059.439,1547.782 5058.179,1547.502 5057.459,1547.262L5057.819,1540.782L5084.579,1540.782C5088.579,1540.702 5091.759,1540.202 5094.119,1539.282C5096.479,1538.362 5098.159,1536.682 5099.159,1534.242C5100.159,1531.802 5100.659,1528.382 5100.659,1523.982C5100.659,1519.502 5100.159,1516.062 5099.159,1513.662C5098.159,1511.262 5096.479,1509.582 5094.119,1508.622C5091.759,1507.662 5088.579,1507.182 5084.579,1507.182C5078.019,1507.182 5072.359,1507.222 5067.599,1507.302C5062.839,1507.382 5059.619,1507.502 5057.939,1507.662L5056.259,1499.142C5059.299,1498.822 5062.139,1498.582 5064.779,1498.422C5067.419,1498.262 5070.299,1498.162 5073.419,1498.122C5076.539,1498.082 5080.299,1498.062 5084.699,1498.062ZM5066.819,1499.142L5066.819,1581.942L5056.259,1581.942L5056.259,1499.142L5066.819,1499.142Z" style="fill:white;fill-rule:nonzero;"/>
            </g>
            <g transform="matrix(0.034171,0.078,-0.034171,0.078,4910.999545,1961.698681)">
                <path d="M5305.74,1583.795C5308.62,1583.795 5310.06,1585.275 5310.06,1588.235L5313.54,1666.595L5302.98,1666.595L5299.98,1592.555L5297.46,1592.555L5278.98,1653.635C5278.34,1656.035 5276.82,1657.235 5274.42,1657.235L5264.94,1657.235C5262.46,1657.235 5260.86,1656.035 5260.14,1653.635L5241.66,1592.555L5239.26,1592.555L5236.38,1666.595L5225.82,1666.595L5229.06,1588.235C5229.22,1585.275 5230.7,1583.795 5233.5,1583.795L5245.5,1583.795C5247.74,1583.795 5249.22,1584.995 5249.94,1587.395L5265.42,1637.915C5266.06,1639.755 5266.6,1641.595 5267.04,1643.435C5267.48,1645.275 5267.98,1647.155 5268.54,1649.075L5270.7,1649.075C5271.26,1647.155 5271.78,1645.275 5272.26,1643.435C5272.74,1641.595 5273.26,1639.675 5273.82,1637.675L5289.3,1587.395C5289.94,1584.995 5291.46,1583.795 5293.86,1583.795L5305.74,1583.795Z" style="fill:white;fill-rule:nonzero;"/>
            </g>
            <g transform="matrix(0.383333,0,0,0.875,3087.216667,318.053707)">
                <path d="M5114.049,2481.642C5114.803,2481.658 5115.579,2481.696 5116.379,2481.758C5117.179,2481.819 5117.979,2481.935 5118.779,2482.104L5118.64,2483.581C5117.979,2483.55 5117.248,2483.523 5116.448,2483.5C5115.649,2483.477 5114.879,2483.465 5114.141,2483.465C5113.572,2483.465 5113.084,2483.484 5112.676,2483.523C5112.268,2483.561 5111.934,2483.654 5111.672,2483.8C5111.411,2483.946 5111.222,2484.184 5111.107,2484.515C5110.992,2484.846 5110.934,2485.303 5110.934,2485.888C5110.934,2486.765 5111.092,2487.376 5111.407,2487.722C5111.722,2488.068 5112.234,2488.326 5112.941,2488.495L5116.172,2489.303C5117.402,2489.595 5118.244,2490.106 5118.698,2490.837C5119.152,2491.568 5119.379,2492.548 5119.379,2493.779C5119.379,2494.702 5119.275,2495.448 5119.067,2496.017C5118.86,2496.586 5118.54,2497.021 5118.11,2497.32C5117.679,2497.62 5117.125,2497.828 5116.448,2497.943C5115.772,2498.059 5114.972,2498.117 5114.049,2498.117C5113.526,2498.117 5112.845,2498.093 5112.007,2498.047C5111.169,2498.001 5110.203,2497.878 5109.111,2497.678L5109.25,2496.178C5110.157,2496.209 5110.888,2496.236 5111.442,2496.259C5111.995,2496.282 5112.472,2496.294 5112.872,2496.294L5114.118,2496.294C5114.933,2496.294 5115.575,2496.232 5116.045,2496.109C5116.514,2495.986 5116.844,2495.74 5117.037,2495.371C5117.229,2495.002 5117.325,2494.456 5117.325,2493.733C5117.325,2493.117 5117.256,2492.641 5117.118,2492.302C5116.979,2491.964 5116.76,2491.706 5116.46,2491.529C5116.16,2491.352 5115.779,2491.21 5115.318,2491.102L5112.018,2490.272C5110.865,2489.979 5110.053,2489.472 5109.584,2488.749C5109.115,2488.026 5108.88,2487.057 5108.88,2485.842C5108.88,2484.919 5108.984,2484.177 5109.192,2483.615C5109.4,2483.054 5109.715,2482.631 5110.138,2482.346C5110.561,2482.062 5111.095,2481.873 5111.742,2481.781C5112.388,2481.689 5113.157,2481.642 5114.049,2481.642Z" style="fill:rgb(0,90,141);fill-rule:nonzero;"/>
                <path d="M5125.032,2483.281L5125.032,2494.748C5125.032,2495.286 5125.147,2495.671 5125.378,2495.902C5125.608,2496.132 5126.001,2496.248 5126.554,2496.248L5128.262,2496.248L5128.492,2497.747C5128.246,2497.809 5127.962,2497.863 5127.639,2497.909C5127.316,2497.955 5127,2497.99 5126.693,2498.013C5126.385,2498.036 5126.139,2498.047 5125.954,2498.047C5125.016,2498.047 5124.301,2497.786 5123.809,2497.263C5123.316,2496.74 5123.07,2495.986 5123.07,2495.002L5123.07,2483.281L5125.032,2483.281ZM5128.608,2486.603L5128.608,2488.149L5121.04,2488.149L5121.04,2486.718L5123.255,2486.603L5128.608,2486.603Z" style="fill:rgb(0,90,141);fill-rule:nonzero;"/>
                <path d="M5136.314,2486.326C5137.145,2486.326 5137.849,2486.438 5138.425,2486.661C5139.002,2486.884 5139.437,2487.257 5139.729,2487.78C5140.021,2488.303 5140.167,2489.018 5140.167,2489.926L5140.167,2497.84L5138.621,2497.84L5138.322,2495.394L5138.183,2495.14L5138.183,2489.926C5138.183,2489.233 5138.025,2488.737 5137.71,2488.437C5137.395,2488.137 5136.791,2487.987 5135.899,2487.987C5135.314,2487.987 5134.58,2488.018 5133.695,2488.08C5132.811,2488.141 5131.938,2488.211 5131.077,2488.287L5130.892,2486.834C5131.415,2486.742 5131.988,2486.657 5132.611,2486.58C5133.234,2486.503 5133.868,2486.442 5134.514,2486.395C5135.161,2486.349 5135.76,2486.326 5136.314,2486.326ZM5139.244,2490.918L5139.221,2492.394L5133.845,2492.417C5133.307,2492.433 5132.93,2492.575 5132.715,2492.844C5132.499,2493.114 5132.392,2493.487 5132.392,2493.963L5132.392,2494.679C5132.392,2495.263 5132.53,2495.69 5132.807,2495.959C5133.084,2496.228 5133.53,2496.363 5134.145,2496.363C5134.576,2496.363 5135.064,2496.282 5135.61,2496.121C5136.157,2495.959 5136.706,2495.709 5137.26,2495.371C5137.814,2495.032 5138.322,2494.602 5138.783,2494.079L5138.783,2495.532C5138.614,2495.748 5138.372,2495.998 5138.056,2496.282C5137.741,2496.567 5137.364,2496.844 5136.926,2497.113C5136.487,2497.382 5136.003,2497.605 5135.472,2497.782C5134.941,2497.959 5134.368,2498.047 5133.753,2498.047C5133.092,2498.047 5132.507,2497.928 5132,2497.69C5131.492,2497.451 5131.096,2497.097 5130.811,2496.628C5130.527,2496.159 5130.384,2495.586 5130.384,2494.909L5130.384,2493.687C5130.384,2492.81 5130.657,2492.129 5131.204,2491.645C5131.75,2491.16 5132.515,2490.918 5133.499,2490.918L5139.244,2490.918Z" style="fill:rgb(0,90,141);fill-rule:nonzero;"/>
                <path d="M5145.197,2486.603L5145.451,2488.749L5145.636,2489.095L5145.636,2497.84L5143.674,2497.84L5143.674,2486.603L5145.197,2486.603ZM5150.712,2486.326L5150.481,2488.172L5149.835,2488.172C5149.173,2488.172 5148.512,2488.307 5147.851,2488.576C5147.189,2488.845 5146.382,2489.226 5145.428,2489.718L5145.266,2488.495C5146.097,2487.818 5146.932,2487.288 5147.77,2486.903C5148.608,2486.519 5149.42,2486.326 5150.204,2486.326L5150.712,2486.326Z" style="fill:rgb(0,90,141);fill-rule:nonzero;"/>
                <path d="M5154.888,2481.689L5154.888,2494.748C5154.888,2495.24 5155.022,2495.613 5155.292,2495.867C5155.561,2496.121 5155.942,2496.248 5156.434,2496.248L5157.518,2496.248L5157.749,2497.747C5157.61,2497.809 5157.414,2497.863 5157.161,2497.909C5156.907,2497.955 5156.645,2497.99 5156.376,2498.013C5156.107,2498.036 5155.88,2498.047 5155.695,2498.047C5154.865,2498.047 5154.2,2497.801 5153.7,2497.309C5153.2,2496.817 5152.95,2496.109 5152.95,2495.186L5152.95,2481.689L5154.888,2481.689Z" style="fill:rgb(0,90,141);fill-rule:nonzero;"/>
                <path d="M5165.086,2486.326C5165.917,2486.326 5166.62,2486.438 5167.197,2486.661C5167.774,2486.884 5168.209,2487.257 5168.501,2487.78C5168.793,2488.303 5168.939,2489.018 5168.939,2489.926L5168.939,2497.84L5167.393,2497.84L5167.093,2495.394L5166.955,2495.14L5166.955,2489.926C5166.955,2489.233 5166.797,2488.737 5166.482,2488.437C5166.167,2488.137 5165.563,2487.987 5164.671,2487.987C5164.086,2487.987 5163.352,2488.018 5162.467,2488.08C5161.583,2488.141 5160.71,2488.211 5159.849,2488.287L5159.664,2486.834C5160.187,2486.742 5160.76,2486.657 5161.383,2486.58C5162.006,2486.503 5162.64,2486.442 5163.286,2486.395C5163.932,2486.349 5164.532,2486.326 5165.086,2486.326ZM5168.016,2490.918L5167.993,2492.394L5162.617,2492.417C5162.079,2492.433 5161.702,2492.575 5161.487,2492.844C5161.271,2493.114 5161.164,2493.487 5161.164,2493.963L5161.164,2494.679C5161.164,2495.263 5161.302,2495.69 5161.579,2495.959C5161.856,2496.228 5162.302,2496.363 5162.917,2496.363C5163.348,2496.363 5163.836,2496.282 5164.382,2496.121C5164.928,2495.959 5165.478,2495.709 5166.032,2495.371C5166.586,2495.032 5167.093,2494.602 5167.555,2494.079L5167.555,2495.532C5167.386,2495.748 5167.143,2495.998 5166.828,2496.282C5166.513,2496.567 5166.136,2496.844 5165.698,2497.113C5165.259,2497.382 5164.775,2497.605 5164.244,2497.782C5163.713,2497.959 5163.14,2498.047 5162.525,2498.047C5161.864,2498.047 5161.279,2497.928 5160.771,2497.69C5160.264,2497.451 5159.868,2497.097 5159.583,2496.628C5159.299,2496.159 5159.156,2495.586 5159.156,2494.909L5159.156,2493.687C5159.156,2492.81 5159.429,2492.129 5159.975,2491.645C5160.522,2491.16 5161.287,2490.918 5162.271,2490.918L5168.016,2490.918Z" style="fill:rgb(0,90,141);fill-rule:nonzero;"/>
                <path d="M5179.276,2486.326C5181.306,2486.326 5182.322,2487.357 5182.322,2489.418L5182.322,2497.84L5180.36,2497.84L5180.36,2489.972C5180.36,2489.218 5180.237,2488.699 5179.991,2488.414C5179.745,2488.13 5179.33,2487.987 5178.745,2487.987C5178.053,2487.987 5177.361,2488.157 5176.669,2488.495C5175.977,2488.833 5175.154,2489.295 5174.2,2489.879L5174.108,2488.472C5174.984,2487.795 5175.853,2487.268 5176.715,2486.892C5177.576,2486.515 5178.43,2486.326 5179.276,2486.326ZM5174.108,2486.603L5174.269,2488.749L5174.408,2489.095L5174.408,2497.84L5172.446,2497.84L5172.446,2486.603L5174.108,2486.603Z" style="fill:rgb(0,90,141);fill-rule:nonzero;"/>
                <path d="M5190.466,2486.326C5192.158,2486.326 5193.385,2486.634 5194.146,2487.249C5194.908,2487.864 5195.289,2488.78 5195.289,2489.995C5195.304,2490.995 5195.096,2491.775 5194.666,2492.337C5194.235,2492.898 5193.55,2493.179 5192.612,2493.179L5186.059,2493.179L5186.059,2491.656L5192.104,2491.656C5192.612,2491.656 5192.943,2491.483 5193.097,2491.137C5193.25,2490.791 5193.327,2490.41 5193.327,2489.995C5193.312,2489.272 5193.097,2488.757 5192.681,2488.449C5192.266,2488.141 5191.558,2487.987 5190.559,2487.987C5189.743,2487.987 5189.101,2488.107 5188.632,2488.345C5188.163,2488.584 5187.832,2488.999 5187.64,2489.591C5187.448,2490.183 5187.351,2491.01 5187.351,2492.071C5187.351,2493.271 5187.471,2494.186 5187.709,2494.817C5187.948,2495.448 5188.328,2495.878 5188.851,2496.109C5189.374,2496.34 5190.066,2496.455 5190.928,2496.455C5191.528,2496.455 5192.185,2496.428 5192.901,2496.374C5193.616,2496.321 5194.258,2496.255 5194.827,2496.178L5195.035,2497.494C5194.681,2497.632 5194.246,2497.747 5193.731,2497.84C5193.216,2497.932 5192.685,2498.001 5192.139,2498.047C5191.593,2498.093 5191.105,2498.117 5190.674,2498.117C5189.382,2498.117 5188.344,2497.92 5187.559,2497.528C5186.775,2497.136 5186.202,2496.505 5185.84,2495.636C5185.479,2494.767 5185.298,2493.617 5185.298,2492.187C5185.298,2490.71 5185.479,2489.545 5185.84,2488.691C5186.202,2487.838 5186.763,2487.23 5187.525,2486.868C5188.286,2486.507 5189.267,2486.326 5190.466,2486.326Z" style="fill:rgb(0,90,141);fill-rule:nonzero;"/>
                <path d="M5209.063,2481.712C5210.34,2481.712 5211.351,2481.858 5212.097,2482.15C5212.843,2482.442 5213.378,2482.946 5213.701,2483.661C5214.024,2484.377 5214.185,2485.388 5214.185,2486.695C5214.185,2488.003 5214.028,2489.018 5213.712,2489.741C5213.397,2490.464 5212.882,2490.968 5212.166,2491.252C5211.451,2491.537 5210.494,2491.679 5209.294,2491.679C5208.648,2491.679 5208.029,2491.664 5207.436,2491.633C5206.844,2491.602 5206.302,2491.56 5205.81,2491.506C5205.318,2491.452 5204.898,2491.395 5204.552,2491.333C5204.206,2491.272 5203.964,2491.218 5203.826,2491.172L5203.895,2489.926L5209.04,2489.926C5209.809,2489.91 5210.421,2489.814 5210.874,2489.637C5211.328,2489.46 5211.651,2489.137 5211.843,2488.668C5212.036,2488.199 5212.132,2487.541 5212.132,2486.695C5212.132,2485.834 5212.036,2485.173 5211.843,2484.711C5211.651,2484.25 5211.328,2483.927 5210.874,2483.742C5210.421,2483.557 5209.809,2483.465 5209.04,2483.465C5207.779,2483.465 5206.69,2483.473 5205.775,2483.488C5204.86,2483.504 5204.241,2483.527 5203.918,2483.557L5203.595,2481.919C5204.179,2481.858 5204.725,2481.812 5205.233,2481.781C5205.741,2481.75 5206.294,2481.731 5206.894,2481.723C5207.494,2481.716 5208.217,2481.712 5209.063,2481.712ZM5205.625,2481.919L5205.625,2497.84L5203.595,2497.84L5203.595,2481.919L5205.625,2481.919Z" style="fill:rgb(0,90,141);fill-rule:nonzero;"/>
                <path d="M5218.523,2486.603L5218.777,2488.749L5218.961,2489.095L5218.961,2497.84L5217,2497.84L5217,2486.603L5218.523,2486.603ZM5224.037,2486.326L5223.807,2488.172L5223.161,2488.172C5222.499,2488.172 5221.838,2488.307 5221.176,2488.576C5220.515,2488.845 5219.707,2489.226 5218.754,2489.718L5218.592,2488.495C5219.423,2487.818 5220.257,2487.288 5221.096,2486.903C5221.934,2486.519 5222.745,2486.326 5223.53,2486.326L5224.037,2486.326Z" style="fill:rgb(0,90,141);fill-rule:nonzero;"/>
                <path d="M5230.705,2486.326C5231.998,2486.326 5233.032,2486.519 5233.809,2486.903C5234.586,2487.288 5235.143,2487.914 5235.482,2488.784C5235.82,2489.653 5235.989,2490.802 5235.989,2492.233C5235.989,2493.663 5235.82,2494.813 5235.482,2495.682C5235.143,2496.551 5234.586,2497.178 5233.809,2497.563C5233.032,2497.947 5231.998,2498.14 5230.705,2498.14C5229.429,2498.14 5228.402,2497.947 5227.625,2497.563C5226.848,2497.178 5226.287,2496.551 5225.941,2495.682C5225.595,2494.813 5225.422,2493.663 5225.422,2492.233C5225.422,2490.802 5225.595,2489.653 5225.941,2488.784C5226.287,2487.914 5226.848,2487.288 5227.625,2486.903C5228.402,2486.519 5229.429,2486.326 5230.705,2486.326ZM5230.705,2487.987C5229.89,2487.987 5229.248,2488.114 5228.779,2488.368C5228.31,2488.622 5227.975,2489.057 5227.775,2489.672C5227.575,2490.287 5227.475,2491.141 5227.475,2492.233C5227.475,2493.325 5227.575,2494.179 5227.775,2494.794C5227.975,2495.409 5228.31,2495.844 5228.779,2496.098C5229.248,2496.351 5229.89,2496.478 5230.705,2496.478C5231.521,2496.478 5232.167,2496.351 5232.644,2496.098C5233.12,2495.844 5233.459,2495.409 5233.659,2494.794C5233.859,2494.179 5233.959,2493.325 5233.959,2492.233C5233.959,2491.141 5233.859,2490.287 5233.659,2489.672C5233.459,2489.057 5233.12,2488.622 5232.644,2488.368C5232.167,2488.114 5231.521,2487.987 5230.705,2487.987Z" style="fill:rgb(0,90,141);fill-rule:nonzero;"/>
                <path d="M5248.379,2486.603L5244.895,2492.048L5248.656,2497.84L5246.534,2497.84L5242.865,2492.048L5246.257,2486.603L5248.379,2486.603ZM5239.935,2486.603L5243.326,2492.048L5239.681,2497.84L5237.535,2497.84L5241.296,2492.048L5237.812,2486.603L5239.935,2486.603ZM5244.319,2491.241L5244.319,2492.764L5241.896,2492.764L5241.896,2491.241L5244.319,2491.241Z" style="fill:rgb(0,90,141);fill-rule:nonzero;"/>
                <path d="M5260.954,2486.603L5256.455,2498.463C5256.27,2498.955 5256.04,2499.439 5255.763,2499.916C5255.486,2500.393 5255.151,2500.828 5254.759,2501.22C5254.367,2501.612 5253.905,2501.931 5253.375,2502.177C5252.844,2502.423 5252.233,2502.562 5251.54,2502.593L5251.356,2501.301C5252.263,2501.008 5252.963,2500.616 5253.455,2500.124C5253.948,2499.632 5254.34,2499.032 5254.632,2498.324L5255.186,2496.986C5255.309,2496.678 5255.432,2496.34 5255.555,2495.971C5255.678,2495.602 5255.793,2495.271 5255.901,2494.979L5258.831,2486.603L5260.954,2486.603ZM5251.702,2486.603L5254.678,2494.979C5254.755,2495.209 5254.832,2495.436 5254.909,2495.659C5254.986,2495.882 5255.047,2496.109 5255.094,2496.34L5255.624,2496.34L5254.978,2497.84L5254.378,2497.84C5254.224,2497.84 5254.082,2497.793 5253.951,2497.701C5253.821,2497.609 5253.732,2497.486 5253.686,2497.332L5249.602,2486.603L5251.702,2486.603Z" style="fill:rgb(0,90,141);fill-rule:nonzero;"/>
                <path d="M5283.081,2481.919C5283.635,2481.919 5283.912,2482.204 5283.912,2482.773L5284.581,2497.84L5282.55,2497.84L5281.974,2483.604L5281.489,2483.604L5277.936,2495.348C5277.813,2495.809 5277.52,2496.04 5277.059,2496.04L5275.236,2496.04C5274.759,2496.04 5274.452,2495.809 5274.313,2495.348L5270.76,2483.604L5270.299,2483.604L5269.745,2497.84L5267.714,2497.84L5268.337,2482.773C5268.368,2482.204 5268.653,2481.919 5269.191,2481.919L5271.498,2481.919C5271.929,2481.919 5272.214,2482.15 5272.352,2482.612L5275.329,2492.325C5275.452,2492.679 5275.555,2493.033 5275.64,2493.387C5275.725,2493.74 5275.821,2494.102 5275.928,2494.471L5276.344,2494.471C5276.451,2494.102 5276.551,2493.74 5276.644,2493.387C5276.736,2493.033 5276.836,2492.664 5276.944,2492.279L5279.92,2482.612C5280.043,2482.15 5280.335,2481.919 5280.797,2481.919L5283.081,2481.919Z" style="fill:rgb(0,90,141);fill-rule:nonzero;"/>
                <path d="M5293.372,2486.326C5294.202,2486.326 5294.906,2486.438 5295.483,2486.661C5296.06,2486.884 5296.494,2487.257 5296.786,2487.78C5297.079,2488.303 5297.225,2489.018 5297.225,2489.926L5297.225,2497.84L5295.679,2497.84L5295.379,2495.394L5295.24,2495.14L5295.24,2489.926C5295.24,2489.233 5295.083,2488.737 5294.767,2488.437C5294.452,2488.137 5293.848,2487.987 5292.956,2487.987C5292.372,2487.987 5291.637,2488.018 5290.753,2488.08C5289.868,2488.141 5288.995,2488.211 5288.134,2488.287L5287.949,2486.834C5288.472,2486.742 5289.045,2486.657 5289.668,2486.58C5290.291,2486.503 5290.926,2486.442 5291.572,2486.395C5292.218,2486.349 5292.818,2486.326 5293.372,2486.326ZM5296.302,2490.918L5296.279,2492.394L5290.903,2492.417C5290.364,2492.433 5289.988,2492.575 5289.772,2492.844C5289.557,2493.114 5289.449,2493.487 5289.449,2493.963L5289.449,2494.679C5289.449,2495.263 5289.588,2495.69 5289.864,2495.959C5290.141,2496.228 5290.587,2496.363 5291.203,2496.363C5291.633,2496.363 5292.122,2496.282 5292.668,2496.121C5293.214,2495.959 5293.764,2495.709 5294.318,2495.371C5294.871,2495.032 5295.379,2494.602 5295.84,2494.079L5295.84,2495.532C5295.671,2495.748 5295.429,2495.998 5295.114,2496.282C5294.798,2496.567 5294.421,2496.844 5293.983,2497.113C5293.545,2497.382 5293.06,2497.605 5292.529,2497.782C5291.999,2497.959 5291.426,2498.047 5290.81,2498.047C5290.149,2498.047 5289.565,2497.928 5289.057,2497.69C5288.549,2497.451 5288.153,2497.097 5287.869,2496.628C5287.584,2496.159 5287.442,2495.586 5287.442,2494.909L5287.442,2493.687C5287.442,2492.81 5287.715,2492.129 5288.261,2491.645C5288.807,2491.16 5289.572,2490.918 5290.557,2490.918L5296.302,2490.918Z" style="fill:rgb(0,90,141);fill-rule:nonzero;"/>
                <path d="M5307.561,2486.326C5309.592,2486.326 5310.607,2487.357 5310.607,2489.418L5310.607,2497.84L5308.646,2497.84L5308.646,2489.972C5308.646,2489.218 5308.523,2488.699 5308.277,2488.414C5308.031,2488.13 5307.615,2487.987 5307.031,2487.987C5306.339,2487.987 5305.646,2488.157 5304.954,2488.495C5304.262,2488.833 5303.439,2489.295 5302.485,2489.879L5302.393,2488.472C5303.27,2487.795 5304.139,2487.268 5305,2486.892C5305.862,2486.515 5306.715,2486.326 5307.561,2486.326ZM5302.393,2486.603L5302.555,2488.749L5302.693,2489.095L5302.693,2497.84L5300.732,2497.84L5300.732,2486.603L5302.393,2486.603Z" style="fill:rgb(0,90,141);fill-rule:nonzero;"/>
                <path d="M5319.444,2486.326C5320.275,2486.326 5320.978,2486.438 5321.555,2486.661C5322.132,2486.884 5322.566,2487.257 5322.859,2487.78C5323.151,2488.303 5323.297,2489.018 5323.297,2489.926L5323.297,2497.84L5321.751,2497.84L5321.451,2495.394L5321.313,2495.14L5321.313,2489.926C5321.313,2489.233 5321.155,2488.737 5320.84,2488.437C5320.525,2488.137 5319.921,2487.987 5319.029,2487.987C5318.444,2487.987 5317.71,2488.018 5316.825,2488.08C5315.941,2488.141 5315.068,2488.211 5314.206,2488.287L5314.022,2486.834C5314.545,2486.742 5315.118,2486.657 5315.741,2486.58C5316.364,2486.503 5316.998,2486.442 5317.644,2486.395C5318.29,2486.349 5318.89,2486.326 5319.444,2486.326ZM5322.374,2490.918L5322.351,2492.394L5316.975,2492.417C5316.437,2492.433 5316.06,2492.575 5315.845,2492.844C5315.629,2493.114 5315.522,2493.487 5315.522,2493.963L5315.522,2494.679C5315.522,2495.263 5315.66,2495.69 5315.937,2495.959C5316.214,2496.228 5316.66,2496.363 5317.275,2496.363C5317.706,2496.363 5318.194,2496.282 5318.74,2496.121C5319.286,2495.959 5319.836,2495.709 5320.39,2495.371C5320.944,2495.032 5321.451,2494.602 5321.913,2494.079L5321.913,2495.532C5321.744,2495.748 5321.501,2495.998 5321.186,2496.282C5320.871,2496.567 5320.494,2496.844 5320.055,2497.113C5319.617,2497.382 5319.132,2497.605 5318.602,2497.782C5318.071,2497.959 5317.498,2498.047 5316.883,2498.047C5316.221,2498.047 5315.637,2497.928 5315.129,2497.69C5314.622,2497.451 5314.226,2497.097 5313.941,2496.628C5313.656,2496.159 5313.514,2495.586 5313.514,2494.909L5313.514,2493.687C5313.514,2492.81 5313.787,2492.129 5314.333,2491.645C5314.879,2491.16 5315.645,2490.918 5316.629,2490.918L5322.374,2490.918Z" style="fill:rgb(0,90,141);fill-rule:nonzero;"/>
                <path d="M5331.257,2486.326C5332.457,2486.326 5333.407,2486.449 5334.107,2486.695C5334.807,2486.942 5335.307,2487.326 5335.607,2487.849C5335.906,2488.372 5336.056,2489.057 5336.056,2489.903C5336.056,2490.718 5335.906,2491.391 5335.607,2491.921C5335.307,2492.452 5334.803,2492.844 5334.095,2493.098C5333.388,2493.352 5332.434,2493.479 5331.234,2493.479C5330.034,2493.479 5329.085,2493.352 5328.385,2493.098C5327.685,2492.844 5327.185,2492.456 5326.885,2491.933C5326.585,2491.41 5326.435,2490.741 5326.435,2489.926C5326.435,2489.08 5326.585,2488.391 5326.885,2487.861C5327.185,2487.33 5327.689,2486.942 5328.396,2486.695C5329.104,2486.449 5330.057,2486.326 5331.257,2486.326ZM5331.234,2487.826C5330.111,2487.826 5329.331,2487.984 5328.892,2488.299C5328.454,2488.614 5328.235,2489.149 5328.235,2489.903C5328.235,2490.641 5328.454,2491.172 5328.892,2491.495C5329.331,2491.818 5330.111,2491.979 5331.234,2491.979C5332.372,2491.979 5333.157,2491.818 5333.588,2491.495C5334.018,2491.172 5334.234,2490.641 5334.234,2489.903C5334.234,2489.149 5334.018,2488.614 5333.588,2488.299C5333.157,2487.984 5332.372,2487.826 5331.234,2487.826ZM5337.372,2486.603L5337.256,2487.688L5334.395,2487.918L5333.588,2486.603L5337.372,2486.603ZM5328.073,2492.741L5329.204,2492.902C5328.942,2493.133 5328.765,2493.413 5328.673,2493.744C5328.581,2494.075 5328.608,2494.379 5328.754,2494.656C5328.9,2494.932 5329.211,2495.109 5329.688,2495.186L5333.888,2495.855C5334.949,2496.009 5335.687,2496.34 5336.103,2496.847C5336.518,2497.355 5336.726,2498.078 5336.726,2499.016C5336.726,2499.893 5336.56,2500.585 5336.229,2501.093C5335.899,2501.601 5335.341,2501.962 5334.557,2502.177C5333.772,2502.393 5332.711,2502.5 5331.373,2502.5C5330.357,2502.5 5329.504,2502.443 5328.812,2502.327C5328.119,2502.212 5327.562,2502.02 5327.139,2501.75C5326.716,2501.481 5326.412,2501.131 5326.227,2500.701C5326.043,2500.27 5325.95,2499.732 5325.95,2499.086C5325.95,2498.593 5326.024,2498.182 5326.17,2497.851C5326.316,2497.52 5326.547,2497.224 5326.862,2496.963C5327.177,2496.701 5327.589,2496.448 5328.096,2496.201L5329.481,2495.44L5330.38,2495.763L5329.25,2496.617C5328.942,2496.847 5328.685,2497.074 5328.477,2497.297C5328.269,2497.52 5328.115,2497.759 5328.016,2498.013C5327.916,2498.266 5327.866,2498.57 5327.866,2498.924C5327.866,2499.447 5327.966,2499.847 5328.165,2500.124C5328.365,2500.401 5328.719,2500.589 5329.227,2500.689C5329.734,2500.789 5330.442,2500.839 5331.35,2500.839C5332.257,2500.839 5332.961,2500.785 5333.461,2500.678C5333.961,2500.57 5334.311,2500.378 5334.511,2500.101C5334.711,2499.824 5334.81,2499.432 5334.81,2498.924C5334.81,2498.54 5334.76,2498.247 5334.661,2498.047C5334.561,2497.847 5334.372,2497.693 5334.095,2497.586C5333.818,2497.478 5333.411,2497.386 5332.872,2497.309L5328.835,2496.755C5328.358,2496.694 5327.977,2496.54 5327.692,2496.294C5327.408,2496.048 5327.212,2495.755 5327.104,2495.417C5326.996,2495.079 5326.966,2494.736 5327.012,2494.39C5327.058,2494.044 5327.173,2493.721 5327.358,2493.421C5327.543,2493.121 5327.781,2492.894 5328.073,2492.741Z" style="fill:rgb(0,90,141);fill-rule:nonzero;"/>
                <path d="M5344.201,2486.326C5345.893,2486.326 5347.12,2486.634 5347.881,2487.249C5348.643,2487.864 5349.023,2488.78 5349.023,2489.995C5349.039,2490.995 5348.831,2491.775 5348.4,2492.337C5347.97,2492.898 5347.285,2493.179 5346.347,2493.179L5339.794,2493.179L5339.794,2491.656L5345.839,2491.656C5346.347,2491.656 5346.678,2491.483 5346.831,2491.137C5346.985,2490.791 5347.062,2490.41 5347.062,2489.995C5347.047,2489.272 5346.831,2488.757 5346.416,2488.449C5346.001,2488.141 5345.293,2487.987 5344.293,2487.987C5343.478,2487.987 5342.836,2488.107 5342.367,2488.345C5341.898,2488.584 5341.567,2488.999 5341.375,2489.591C5341.182,2490.183 5341.086,2491.01 5341.086,2492.071C5341.086,2493.271 5341.206,2494.186 5341.444,2494.817C5341.682,2495.448 5342.063,2495.878 5342.586,2496.109C5343.109,2496.34 5343.801,2496.455 5344.663,2496.455C5345.263,2496.455 5345.92,2496.428 5346.635,2496.374C5347.351,2496.321 5347.993,2496.255 5348.562,2496.178L5348.77,2497.494C5348.416,2497.632 5347.981,2497.747 5347.466,2497.84C5346.951,2497.932 5346.42,2498.001 5345.874,2498.047C5345.328,2498.093 5344.84,2498.117 5344.409,2498.117C5343.117,2498.117 5342.078,2497.92 5341.294,2497.528C5340.51,2497.136 5339.937,2496.505 5339.575,2495.636C5339.214,2494.767 5339.033,2493.617 5339.033,2492.187C5339.033,2490.71 5339.214,2489.545 5339.575,2488.691C5339.937,2487.838 5340.498,2487.23 5341.259,2486.868C5342.021,2486.507 5343.001,2486.326 5344.201,2486.326Z" style="fill:rgb(0,90,141);fill-rule:nonzero;"/>
                <path d="M5353.5,2486.603L5353.753,2488.749L5353.938,2489.095L5353.938,2497.84L5351.977,2497.84L5351.977,2486.603L5353.5,2486.603ZM5359.014,2486.326L5358.783,2488.172L5358.137,2488.172C5357.476,2488.172 5356.814,2488.307 5356.153,2488.576C5355.492,2488.845 5354.684,2489.226 5353.73,2489.718L5353.569,2488.495C5354.399,2487.818 5355.234,2487.288 5356.072,2486.903C5356.911,2486.519 5357.722,2486.326 5358.506,2486.326L5359.014,2486.326Z" style="fill:rgb(0,90,141);fill-rule:nonzero;"/>
            </g>
        </g>
    </g>
</svg>
